<?xml version="1.0" standalone="no"?>
<!DOCTYPE svg PUBLIC "-//W3C//DTD SVG 1.1//EN" "http://www.w3.org/Graphics/SVG/1.1/DTD/svg11.dtd" >
<svg xmlns="http://www.w3.org/2000/svg">
<metadata>
Created by FontPrep 20130207 at Wed Jul 30 09:44:57 2014
 By Pascal Huynh
Copyright (c) 2010 by Typemade. All rights reserved.
</metadata>
<defs>
<font id="ef57ba94b48177a2b784e1f373ff52ae" horiz-adv-x='1024' >
  <font-face 
    font-family="JosefinSans"
    font-weight="400"
    font-stretch="normal"
    units-per-em="2048"
    panose-1="0 0 0 0 0 0 0 0 0 0"
    ascent="1536"
    descent="-512"
    x-height="768"
    cap-height="1434"
    bbox="-59 -512 2142 1968"
    underline-thickness="102"
    underline-position="-102"
    unicode-range="U+000D-25FC"
  />
<missing-glyph horiz-adv-x="748" 
d="M136 68h408v1229h-408v-1229zM68 0v1365h544v-1365h-544z" />
    <glyph glyph-name=".notdef" horiz-adv-x="748" 
d="M136 68h408v1229h-408v-1229zM68 0v1365h544v-1365h-544z" />
    <glyph glyph-name="glyph1" horiz-adv-x="2048" 
 />
    <glyph glyph-name="glyph1" horiz-adv-x="2048" 
 />
    <glyph glyph-name="uni000D" unicode="&#xd;" 
 />
    <glyph glyph-name="space" unicode=" " 
 />
    <glyph glyph-name="exclam" unicode="!" horiz-adv-x="411" 
d="M162 340v1196h86v-1196h-86zM139 113q0 29 20.5 48t45.5 19t45 -20t20 -48t-21 -47.5t-45 -19.5t-44.5 19.5t-20.5 48.5z" />
    <glyph glyph-name="quotedbl" unicode="&#x22;" horiz-adv-x="634" 
d="M401 967v508h91l-9 -508h-82zM129 967v508h90l-8 -508h-82z" />
    <glyph glyph-name="numbersign" unicode="#" horiz-adv-x="1169" 
d="M373 514h291q20 180 32 291h-290q-8 -74 -16.5 -146.5t-16.5 -144.5zM997 514l-8 -84h-252l-49 -430h-86l49 430h-291l-49 -430h-86l49 430h-219l11 84h221q20 180 32 291h-217q2 11 9 82h219l53 430h86q-14 -109 -26.5 -215.5t-26.5 -214.5h291l53 430h86
q-14 -109 -26.5 -215.5t-26.5 -214.5h251l-8 -82h-254q-12 -111 -32 -291h247z" />
    <glyph glyph-name="dollar" unicode="$" horiz-adv-x="1161" 
d="M821 580.5q-84 68.5 -221 113.5v-622q129 13 217 94.5t88 213.5t-84 200.5zM268 1075q0 -106 56.5 -158.5t152.5 -85.5q18 -12 37 -14v539q-117 -12 -181.5 -93.5t-64.5 -187.5zM897 627q94 -75 94 -244q0 -168 -112.5 -276.5t-278.5 -120.5v-125h-86v127
q-226 19 -379 194l58 58q160 -160 321 -172v657q-8 4 -38 14q-286 95 -292 320q-9 141 76.5 255.5t253.5 125.5v125h86v-127q148 -8 285 -125q-12 -14 -49 -66q-106 94 -236 109v-572q63 -23 133 -52.5t164 -104.5z" />
    <glyph glyph-name="percent" unicode="%" horiz-adv-x="1486" 
d="M915 228q0 -64 44.5 -108t110.5 -44t109.5 44t43.5 108t-44 109.5t-110 45.5t-110 -45.5t-44 -109.5zM1237 396.5q72 -68.5 72 -168.5q0 -99 -72 -167.5t-169.5 -68.5t-168 69t-70.5 167.5t70.5 167.5t168 69t169.5 -68.5zM1102 1024q-423 -708 -610 -1024h-95l611 1024
h94zM293 796q0 -64 43.5 -108.5t109.5 -44.5t110 44t44 109t-44 108.5t-110 43.5t-109.5 -44t-43.5 -108zM207 797q0 49 19.5 92t51 74.5t75.5 50t93 18.5t92.5 -18.5t76 -50t52 -74.5t19.5 -92t-19.5 -93.5t-52 -76t-76 -50t-92.5 -18.5t-93 18.5t-75.5 50t-51 76
t-19.5 93.5z" />
    <glyph glyph-name="ampersand" unicode="&#x26;" horiz-adv-x="1433" 
d="M301 383q0 -130 90.5 -222.5t226.5 -92.5q90 0 161 42t112 109l-293 479q-128 -12 -212.5 -98.5t-84.5 -216.5zM626 -16q-173 0 -291 116.5t-118 274.5t94.5 267.5t237.5 133.5q-86 137 -134 219q-89 150 -68 281.5t151 210.5q101 62 214.5 42.5t217.5 -83.5l-35 -70
q-105 57 -186 73.5t-156 -30.5q-111 -70 -123 -174t49 -205q109 -174 214.5 -348t213.5 -348q30 78 37 154v86q15 180 92.5 182t114.5 2h84v-84h-107q-63 0 -84.5 -47t-21.5 -172v-82q0 -84 -39 -162l133 -215l-65 -45q-29 45 -55.5 90t-55.5 88q-55 -72 -138.5 -113.5
t-175.5 -41.5z" />
    <glyph glyph-name="quotesingle" unicode="'" horiz-adv-x="313" 
d="M117 967v508h90l-8 -508h-82z" />
    <glyph glyph-name="parenleft" unicode="(" horiz-adv-x="831" 
d="M274 598q0 285 98.5 535t239.5 397q41 -31 64 -47q-215 -248 -265.5 -494t-50.5 -455t93 -441t223 -380q-41 -31 -64 -47q-139 143 -238.5 395t-99.5 537z" />
    <glyph glyph-name="parenright" unicode=")" horiz-adv-x="819" 
d="M512 658.5q0 209.5 -91.5 438.5t-223.5 382l63 47q229 -247 283.5 -512.5t54.5 -487t-98.5 -468t-239.5 -396.5l-63 47q216 249 265.5 494.5t49.5 455z" />
    <glyph glyph-name="asterisk" unicode="*" horiz-adv-x="686" 
d="M299 1475h90q0 -55 -1 -110.5t-1 -113.5q8 5 193 109l41 -72q-49 -29 -96.5 -55t-96.5 -55l190 -109l-47 -78q-47 29 -93 55.5t-93 55.5q-2 -53 -2 -106.5t-2 -106.5h-82v213q-153 -88 -184 -107l-47 80q47 27 94 52.5t94 52.5l-186 110q16 35 41 72q47 -29 94 -55.5
t94 -55.5v224z" />
    <glyph glyph-name="plus" unicode="+" horiz-adv-x="1112" 
d="M176 432v84h326v326h86v-326h325v-84h-325v-328h-86v328h-326z" />
    <glyph glyph-name="comma" unicode="," horiz-adv-x="409" 
d="M289 176l-176 -422h-78l158 422h96z" />
    <glyph glyph-name="hyphen" unicode="-" 
d="M109 346v84h376v-84h-376z" />
    <glyph glyph-name="period" unicode="." horiz-adv-x="333" 
d="M109 68q0 29 20.5 48t46.5 19t46 -19.5t20 -47.5t-20.5 -48t-46.5 -20t-46 19.5t-20 48.5z" />
    <glyph glyph-name="slash" unicode="/" horiz-adv-x="706" 
d="M690 1507l-569 -1546h-86l569 1546h86z" />
    <glyph glyph-name="zero" unicode="0" horiz-adv-x="1261" 
d="M162 663q0 -126 38 -237t138 -234.5t283 -123.5q90 0 174 43t188 168t104 380t-125.5 430t-333.5 175q-209 0 -337.5 -173t-128.5 -428zM74 657q0 134 35.5 255.5t104.5 218t173.5 157t242.5 60.5t240.5 -61.5t203 -208t100.5 -414.5q0 -147 -46.5 -272.5t-123 -215.5
t-177 -140t-209.5 -50t-208 52t-173.5 143t-118.5 216.5t-44 259.5z" />
    <glyph glyph-name="one" unicode="1" horiz-adv-x="530" 
d="M70 1247v84h280v-1331h-86v1247h-194z" />
    <glyph glyph-name="two" unicode="2" horiz-adv-x="1034" 
d="M98 949q0 170 104 284.5t279 114.5t282 -117t107 -293q0 -267 -228.5 -509.5t-324.5 -344.5h641v-84h-849q129 127 402 401t273 512q0 179 -92.5 265t-194.5 86q-170 0 -241.5 -98.5t-71.5 -226.5t80 -216l-51 -51q-53 47 -84 121.5t-31 155.5z" />
    <glyph glyph-name="three" unicode="3" horiz-adv-x="1054" 
d="M719 170q102 102 102 241.5t-101.5 241t-246.5 101.5q-67 0 -129 -43q94 135 187.5 268t187.5 268h-508v84h661l-362 -504q167 -12 282 -129t115 -290t-125.5 -298.5t-308.5 -125.5t-311 139l63 63q100 -118 246 -118t248 102z" />
    <glyph glyph-name="four" unicode="4" horiz-adv-x="1054" 
d="M739 459v637q-123 -160 -244.5 -319t-244.5 -318h489zM825 459h199v-84h-199v-375h-86v375h-663q188 244 374.5 486.5t374.5 486.5v-889z" />
    <glyph glyph-name="five" unicode="5" horiz-adv-x="1112" 
d="M289 160q96 -92 235 -92q138 0 240 102t102 241t-102 239t-248.5 100t-222.5 -93v674h588v-84h-502v-444q73 31 151 31t157 -33t137.5 -90.5t93 -134t34.5 -208t-126.5 -258t-299.5 -126.5t-301 118z" />
    <glyph glyph-name="six" unicode="6" horiz-adv-x="1064" 
d="M186 407q0 -141 101 -240t243 -99q141 0 242.5 99.5t101.5 239.5t-101 241.5t-243 101.5t-243 -101t-101 -242zM528 834q177 0 303.5 -124.5t126.5 -301t-126 -300.5t-302 -124t-301 121t-127 281t61.5 288.5t162 240t219.5 207t235 178.5q35 -46 56 -69
q-219 -143 -344 -273.5t-181 -224.5q88 101 217 101z" />
    <glyph glyph-name="seven" unicode="7" horiz-adv-x="960" 
d="M29 1247v84h831l-598 -1331h-100q141 313 281.5 623.5t281.5 623.5h-696z" />
    <glyph glyph-name="eight" unicode="8" horiz-adv-x="1044" 
d="M362 891.5q65 -57.5 158 -57.5q94 0 156.5 57t62.5 147t-63.5 158t-155.5 68t-157.5 -69t-65.5 -157q0 -89 65 -146.5zM764.5 648.5q-101.5 101.5 -242.5 101.5t-240.5 -98t-99.5 -240t98.5 -244t240.5 -102t243.5 103.5t101.5 240.5t-101.5 238.5zM94 412
q0 135 76 238.5t195 148.5q-70 33 -112 98.5t-42 136.5t23.5 127t65.5 97.5t97.5 65.5t151.5 24t186 -92t90 -216q0 -80 -42 -143t-107 -98q193 -75 234.5 -197t41.5 -200t-34.5 -156t-93 -136.5t-137.5 -92t-210 -33.5t-257 126t-126 302z" />
    <glyph glyph-name="nine" unicode="9" horiz-adv-x="1075" 
d="M276.5 633q102.5 -101 243.5 -101q142 0 241 101t99 242t-99 240t-241 99t-244 -99t-102 -240t102.5 -242zM518 451q-180 0 -305 123.5t-125 299t126 300t304 124.5t304 -124t126 -284q0 -161 -63.5 -288t-162.5 -237.5t-220 -204.5t-234 -176q-14 16 -27.5 33.5
t-27.5 33.5q217 145 343 274.5t181 225.5q-83 -100 -219 -100z" />
    <glyph glyph-name="colon" unicode=":" horiz-adv-x="358" 
d="M106 580q0 29 20.5 48t47.5 19t46.5 -19.5t19.5 -47.5t-19.5 -48t-46.5 -20t-47.5 19.5t-20.5 48.5zM106 68q0 29 20.5 48t47.5 19t46.5 -19.5t19.5 -47.5t-19.5 -48t-46.5 -20t-47.5 19.5t-20.5 48.5z" />
    <glyph glyph-name="semicolon" unicode=";" horiz-adv-x="411" 
d="M160 580q0 29 21 48t47 19t46.5 -19.5t20.5 -47.5t-20.5 -48t-47.5 -20t-47 19.5t-20 48.5zM260 176l-176 -422h-80l158 422h98z" />
    <glyph glyph-name="less" unicode="&#x3c;" horiz-adv-x="1392" 
d="M428 487q550 -315 705 -405v-113q-225 129 -449 259t-448 259q225 129 448 259t449 260v-113q-175 -103 -351 -203t-354 -203z" />
    <glyph glyph-name="equal" unicode="=" horiz-adv-x="1449" 
d="M205 674v84h1036v-84h-1036zM205 276v84h1036v-84h-1036z" />
    <glyph glyph-name="greater" unicode="&#x3e;" horiz-adv-x="1331" 
d="M940 487q-397 230 -704 406v113q225 -129 448 -259.5t449 -259.5q-225 -129 -448.5 -259t-448.5 -259v113q461 264 704 405z" />
    <glyph glyph-name="question" unicode="?" horiz-adv-x="925" 
d="M365 98q0 28 21.5 48t45.5 20t45 -19.5t21 -48.5t-20.5 -48t-45.5 -19t-46 19.5t-21 47.5zM464 1499q167 0 283.5 -116.5t116.5 -282.5q0 -205 -200 -346q-35 -27 -69 -47.5t-77 -62t-43 -148.5v-160h-86v199q0 105 58.5 154.5t104.5 77.5t104 76q122 100 122 246
t-90 236t-217 90t-208 -61t-116 -170q-9 4 -75 26q65 193 187 241t205 48z" />
    <glyph glyph-name="at" unicode="@" horiz-adv-x="2027" 
d="M773 162.5q91 -92.5 227 -92.5q137 0 227 92.5t90 223.5t-90.5 223.5t-227 92.5t-227 -92.5t-90.5 -223.5t91 -223.5zM168 387q0 172 65.5 323.5t179 264t265 178.5t323.5 66t324 -66t264.5 -178.5t178 -264t65.5 -325.5q-11 -213 -103 -299t-221 -86h-184v82
q0 25 1 48.5t1 45.5q-30 -76 -119 -133t-191 -57q-185 0 -303 116t-118 281q0 166 117.5 283.5t285.5 117.5q112 0 205 -60.5t121 -135.5l8 180h70v-686h115q98 0 161.5 71.5t65.5 229.5t-56.5 295t-160 238.5t-237.5 160t-291 58.5t-291 -58.5t-237 -160t-159.5 -238.5
t-58.5 -293t58.5 -291t159.5 -236.5t237.5 -159.5t291.5 -58q243 0 441 139q37 -43 51 -62q-211 -161 -492 -161q-172 0 -323.5 65.5t-265 178t-179 264t-65.5 323.5z" />
    <glyph glyph-name="A" unicode="A" horiz-adv-x="1515" 
d="M506 696h506q-59 141 -150.5 354t-103.5 259q-53 -156 -120 -307.5t-132 -305.5zM471 614q-56 -130 -260 -614h-88q160 377 317.5 749.5t317.5 749.5q160 -377 317.5 -749.5t317.5 -749.5h-86l-260 614h-576z" />
    <glyph glyph-name="B" unicode="B" horiz-adv-x="1095" 
d="M236 762h270q145 0 231 85t86 222q0 283 -325 283h-262v-590zM236 82h272q247 0 308 109.5t61 186.5q0 145 -116.5 223.5t-287.5 78.5h-237v-598zM152 0v1434h327q311 0 369.5 -133t58.5 -243t-62.5 -206t-191.5 -131q204 -40 256 -159.5t52 -201.5q0 -166 -131.5 -263
t-313.5 -97h-364z" />
    <glyph glyph-name="C" unicode="C" horiz-adv-x="1372" 
d="M127 715q0 152 57.5 286t156.5 233t232 157.5t261 58.5q224 0 399 -102l-47 -70q-151 90 -306 90q-289 0 -478 -192.5t-189 -462.5q0 -133 50 -251t189 -257t402 -139q175 0 330 90l47 -70q-178 -102 -351 -102q-174 0 -307 57t-232 156.5t-156.5 232.5t-57.5 285z" />
    <glyph glyph-name="D" unicode="D" horiz-adv-x="1335" 
d="M240 84h178q320 0 498 186.5t178 458.5t-183.5 447.5t-453.5 175.5h-217v-1268zM156 0v1434h301q302 0 454 -143.5t209.5 -277t57.5 -275.5t-42 -269t-136.5 -231.5t-245 -171t-367.5 -66.5h-231z" />
    <glyph glyph-name="E" unicode="E" horiz-adv-x="1230" 
d="M174 0v1434h850v-82h-766v-588h686v-82h-686v-600h795v-82h-879z" />
    <glyph glyph-name="F" unicode="F" horiz-adv-x="1202" 
d="M174 0v1434h850v-82h-766v-588h686v-82h-686v-682h-84z" />
    <glyph glyph-name="G" unicode="G" horiz-adv-x="1396" 
d="M127 715q0 152 57.5 286t156.5 233t232 157.5t261 58.5q224 0 399 -102l-47 -70q-151 90 -306 90q-289 0 -478 -192.5t-189 -462.5q0 -133 50 -251t189 -257t402 -139q156 0 291 69v344q0 25 -10.5 39t-44.5 14h-240v82h270q61 0 86 -22.5t25 -81.5v-424
q-178 -102 -351 -102q-174 0 -307 57t-232 156.5t-156.5 232.5t-57.5 285z" />
    <glyph glyph-name="H" unicode="H" horiz-adv-x="1433" 
d="M1157 0v682h-881v-682h-83v1434h83v-670h881v670h90l-6 -1434h-84z" />
    <glyph glyph-name="I" unicode="I" horiz-adv-x="507" 
d="M213 0v1434h84v-1434h-84z" />
    <glyph glyph-name="J" unicode="J" horiz-adv-x="638" 
d="M375 190v1244h86v-1250q0 -218 -120 -345.5t-304 -131.5v82q149 8 243.5 115t94.5 286z" />
    <glyph glyph-name="K" unicode="K" horiz-adv-x="1228" 
d="M221 0h-84v1434h84v-643q0 -30 -4 -62q10 12 18.5 22.5t100.5 98.5t265 253t347 331h111l-602 -572q174 -217 342 -431t340 -431h-105q-528 669 -635 807q-2 -2 -178 -170v-637z" />
    <glyph glyph-name="L" unicode="L" horiz-adv-x="1214" 
d="M174 0v1434h84v-1352h795v-82h-879z" />
    <glyph glyph-name="M" unicode="M" horiz-adv-x="1918" 
d="M291 0h-86v1499q188 -244 374.5 -486.5t374.5 -486.5q188 244 375 486.5t375 486.5v-1499h-86v1178q4 40 4 82q-162 -225 -331 -441.5t-337 -435.5q-141 184 -278 363.5t-279 363.5l-86 111q-6 10 -12 19t-12 20q0 -42 4 -82v-1178z" />
    <glyph glyph-name="N" unicode="N" horiz-adv-x="1665" 
d="M291 0h-86v1499q823 -958 1132 -1319q10 -14 19.5 -26.5t19.5 -26.5l-6 66v1241h86v-1500q-523 601 -1132 1309q-10 14 -19.5 26.5t-19.5 26.5l6 -65v-1231z" />
    <glyph glyph-name="O" unicode="O" horiz-adv-x="1720" 
d="M213 713q0 -135 50 -253t138 -205t205 -138t250 -51t252 51t208 139t140 206t51 253t-51 253.5t-139 208t-207 140.5t-252 51t-251 -52t-206 -141.5t-138 -208t-50 -253.5zM127 715q0 152 57.5 286t156.5 233t232 157.5t285 58.5t286 -58.5t233.5 -157.5t157.5 -233.5
t58 -286.5t-58 -284.5t-157.5 -232t-233.5 -156.5t-286 -57t-285 57t-232 156.5t-156.5 232.5t-57.5 285z" />
    <glyph glyph-name="P" unicode="P" horiz-adv-x="950" 
d="M236 758h213q194 0 279 91t85 210q0 118 -105.5 205.5t-256.5 87.5h-215v-594zM152 0v1434h307q154 0 296 -96t142 -275q0 -180 -111.5 -284.5t-322.5 -104.5h-227v-674h-84z" />
    <glyph glyph-name="Q" unicode="Q" horiz-adv-x="1724" 
d="M213 714q0 -134 50 -252t189 -257t402 -139q135 0 254 51t208 139t140 206t51 253t-51 253.5t-139 208t-207 140.5t-252 51t-251 -52t-206 -141.5t-138 -208t-50 -252.5zM127 715q0 152 57.5 286t156.5 233t232 157.5t285 58.5t286 -58.5t233.5 -157.5t157.5 -233.5
t58 -262.5q0 -230 -106 -398.5t-285 -257.5h436v-82h-628q-78 -16 -152 -16q-152 0 -285 57t-232 156.5t-156.5 232.5t-57.5 285z" />
    <glyph glyph-name="R" unicode="R" horiz-adv-x="1034" 
d="M236 758h213q194 0 279 91t85 210q0 118 -105.5 205.5t-256.5 87.5h-215v-594zM430 674h-194v-674h-84v1434h307q154 0 296 -96t142 -279q0 -147 -79 -244.5t-228 -128.5q82 -174 163 -344t160 -342h-92q-5 11 -319 678q-36 -4 -72 -4z" />
    <glyph glyph-name="S" unicode="S" horiz-adv-x="1130" 
d="M551 66q144 0 249 85t105 226q0 219 -173 278.5t-223 75.5q-139 44 -232.5 116.5t-93.5 234.5q3 140 93.5 250t272.5 110q183 0 336 -129q-12 -14 -49 -66q-127 113 -273 113t-220.5 -83t-74.5 -204q0 -152 101 -198.5t161 -66.5t141 -47.5t200.5 -107.5t119.5 -265
t-123 -294.5t-307 -109.5q-251 0 -426 198l58 58q174 -174 358 -174z" />
    <glyph glyph-name="T" unicode="T" horiz-adv-x="1132" 
d="M0 1352v82h1133v-82h-525v-1352h-84v1352h-524z" />
    <glyph glyph-name="U" unicode="U" horiz-adv-x="1335" 
d="M188 463v971h84v-965q0 -189 109 -296t286 -107t289.5 105t112.5 298v965h86v-971q0 -229 -135.5 -354t-350.5 -125t-348 125t-133 354z" />
    <glyph glyph-name="V" unicode="V" horiz-adv-x="1478" 
d="M111 1434h86q133 -315 265 -625.5t265 -626.5q4 -14 9 -28.5t9 -28.5q4 14 9.5 28.5t9.5 28.5q133 315 265 626t265 626h86q-160 -377 -317.5 -750t-317.5 -750q-220 518 -634 1500z" />
    <glyph glyph-name="W" unicode="W" horiz-adv-x="2269" 
d="M111 1434h86q133 -315 264 -626.5t266 -625.5q4 -14 9 -28.5t9 -28.5q70 205 161 407.5t177 403.5q-118 282 -211 498h89q304 -731 528 -1252q4 -14 9 -28.5t9 -28.5q4 14 9.5 28.5t9.5 28.5q135 315 266 626t264 626h86q-160 -377 -317.5 -750t-317.5 -750l-362 854
l-19 56q-82 -227 -183 -456.5t-198 -453.5q-220 518 -634 1500z" />
    <glyph glyph-name="X" unicode="X" horiz-adv-x="1433" 
d="M1231 1434l-455 -709q117 -182 235.5 -362.5t235.5 -362.5h-104l-363 555q-16 25 -31.5 53.5t-33.5 53.5q-4 -10 -10.5 -19.5t-10.5 -19.5q-100 -156 -199.5 -310.5t-199.5 -312.5h-105l474 735q-113 174 -226.5 349.5t-226.5 349.5h102q98 -150 194.5 -299.5
t153.5 -237.5t62 -98q6 10 11 18t9 19q112 171 385 598h103z" />
    <glyph glyph-name="Y" unicode="Y" horiz-adv-x="1306" 
d="M702 0h-102v543q-217 364 -530 891h104q113 -193 227.5 -379.5t225.5 -378.5q6 -16 12 -29.5t12 -28.5h2q14 33 23 58q246 406 450 758h105l-529 -891v-543z" />
    <glyph glyph-name="Z" unicode="Z" horiz-adv-x="1433" 
d="M166 0v82q246 319 488.5 635.5t488.5 634.5h-809q-63 0 -98 24.5t-35 83.5v45h86v-24q0 -25 13 -36t48 -11h903v-82q-246 -317 -488.5 -634t-488.5 -636h1037v-82h-1145z" />
    <glyph glyph-name="bracketleft" unicode="[" horiz-adv-x="692" 
d="M170 -305v1833h358v-84h-270v-1665h270v-84h-358z" />
    <glyph glyph-name="backslash" unicode="\" horiz-adv-x="708" 
d="M20 1507h95q143 -389 284.5 -773t284.5 -773h-94q-329 894 -570 1546z" />
    <glyph glyph-name="bracketright" unicode="]" horiz-adv-x="700" 
d="M156 -221h270v1665h-270v84h358v-1833h-358v84z" />
    <glyph glyph-name="asciicircum" unicode="^" horiz-adv-x="962" 
d="M475 1229l-178 -248h-68q61 92 123 185.5t123 185.5q61 -92 122.5 -185.5t123.5 -185.5h-68q-45 61 -89 123.5t-89 124.5z" />
    <glyph glyph-name="underscore" unicode="_" horiz-adv-x="1228" 
d="M205 0v84h819v-84h-819z" />
    <glyph glyph-name="grave" unicode="`" horiz-adv-x="409" 
d="M-59 1253h88q47 -68 92 -136t92 -136h-68q-51 68 -102 136.5t-102 135.5z" />
    <glyph glyph-name="a" unicode="a" horiz-adv-x="1030" 
d="M729 162q92 92 92 224t-92 224t-227 92t-225.5 -93.5t-90.5 -222.5t90 -222.5t225.5 -93.5t227.5 92zM907 768v-768h-78v92q0 23 1 43.5t1 42.5q-25 -73 -114 -132.5t-193 -59.5q-188 0 -306 116.5t-118 280.5t117 282.5t287 118.5q114 0 203.5 -58.5t121.5 -137.5l9 180
h69z" />
    <glyph glyph-name="b" unicode="b" horiz-adv-x="1083" 
d="M345 162.5q91 -92.5 227 -92.5q137 0 227 92.5t90 223.5t-90.5 223.5t-227 92.5t-227 -92.5t-90.5 -223.5t91 -223.5zM246 0h-78v1536h86v-854q-4 -23 -5 -46.5t-3 -45.5q25 73 119 133.5t192 60.5q184 0 301 -118.5t117 -282.5t-118 -280.5t-292 -116.5
q-175 0 -242 78.5t-79 113.5l2 -86v-92z" />
    <glyph glyph-name="c" unicode="c" horiz-adv-x="794" 
d="M74 385q0 167 118 283t274 116t265 -88l-55 -63q-86 69 -210 69q-125 0 -215.5 -92.5t-90.5 -223.5t90.5 -223.5t224.5 -92.5h3q115 0 198 67q40 -46 53 -63q-114 -88 -266 -88q-153 0 -271 116t-118 283z" />
    <glyph glyph-name="d" unicode="d" horiz-adv-x="1073" 
d="M195 385q0 -66 24.5 -123t66.5 -100t99 -67.5t125 -24.5t126 24.5t101 67.5t67.5 100t24.5 123t-24.5 124t-67.5 101t-101 67.5t-126 24.5t-125 -24.5t-99 -67.5t-66.5 -101t-24.5 -124zM829 1536h84v-1536h-75v178q-25 -73 -114.5 -132.5t-193.5 -59.5q-187 0 -304 115
t-117 282q0 168 116.5 284.5t284.5 116.5q116 0 208.5 -60t119.5 -134l-9 92v854z" />
    <glyph glyph-name="e" unicode="e" horiz-adv-x="923" 
d="M484 702q-135 0 -228 -87t-93 -228v-15q1 -24 5 -46l551 219q-35 70 -100 113.5t-135 43.5zM74 385q0 167 118 283t283 116q119 0 217.5 -80.5t134.5 -205.5l-634 -252q35 -78 111 -127t188 -49t198 86q5 -6 53 -64q-115 -106 -274 -106t-277 116t-118 283z" />
    <glyph glyph-name="f" unicode="f" horiz-adv-x="602" 
d="M45 688v84h133v289q0 221 119 344t305 131v-82q-148 -4 -244 -110.5t-96 -280.5v-291h256v-84h-256v-688h-84v688h-133z" />
    <glyph glyph-name="g" unicode="g" horiz-adv-x="1060" 
d="M729 162q92 92 92 224t-92 224t-227 92t-225.5 -93.5t-90.5 -222.5t90 -222.5t225.5 -93.5t227.5 92zM512 -424q134 0 221.5 100.5t87.5 257.5v148q2 23 4 47.5t4 46.5q-31 -74 -118 -131t-189 -58q-186 -2 -304 115t-118 281t117 282.5t287 118.5q114 0 203.5 -58.5
t121.5 -137.5l9 180h69v-840q0 -196 -111.5 -316t-279.5 -124q-86 2 -173 32.5t-142 90.5l61 63q45 -49 114.5 -73.5t135.5 -24.5z" />
    <glyph glyph-name="h" unicode="h" horiz-adv-x="1024" 
d="M211 0v1536h86v-874l-6 -93q41 98 130 154.5t204 58.5t180 -61.5t69 -165.5v-555h-86v532q-4 66 -48 115t-118 51q-136 4 -230.5 -76.5t-94.5 -201.5v-420h-86z" />
    <glyph glyph-name="i" unicode="i" horiz-adv-x="382" 
d="M154 0v768h84v-768h-84zM129 1040q0 29 20.5 48.5t47.5 19.5t47 -19.5t20 -48.5t-21 -48t-47 -19t-46.5 19t-20.5 48z" />
    <glyph glyph-name="j" unicode="j" horiz-adv-x="460" 
d="M176 1040q0 29 20.5 48.5t46.5 19.5t46 -19.5t20 -48.5t-20.5 -48t-46.5 -19t-46 19t-20 48zM199 -10v778h84v-776q0 -234 -136 -361l-61 62q113 113 113 297z" />
    <glyph glyph-name="k" unicode="k" horiz-adv-x="919" 
d="M244 0h-86v1536h86v-1147l426 397q43 -43 51 -53l-285 -268q86 -117 170 -232.5t170 -232.5h-100q-220 295 -301 408l-131 -123v-285z" />
    <glyph glyph-name="l" unicode="l" horiz-adv-x="382" 
d="M154 0v1536h84v-1536h-84z" />
    <glyph glyph-name="m" unicode="m" horiz-adv-x="1630" 
d="M211 0v768h78v-82q0 -82 2 -117q41 98 130 155.5t199 58.5t176 -55t76 -148q43 92 131.5 147t200.5 56t178 -62.5t70 -165.5v-555h-84v532q-4 66 -48 115t-118 51q-138 4 -230 -74.5t-98 -197.5v-426h-86v532q-4 66 -48 115t-118 51q-136 4 -230.5 -76.5t-94.5 -201.5
v-420h-86z" />
    <glyph glyph-name="n" unicode="n" horiz-adv-x="1013" 
d="M211 0v768h78v-82q0 -82 2 -117q41 96 131 155.5t204 59.5t179 -63.5t69 -165.5v-555h-86v532q-4 66 -48 115t-118 51q-136 4 -230.5 -76.5t-94.5 -201.5v-420h-86z" />
    <glyph glyph-name="o" unicode="o" horiz-adv-x="964" 
d="M160 385q0 -131 92 -223t223 -92t224.5 93.5t93.5 221.5t-94.5 222.5t-223.5 94.5t-222 -93t-93 -224zM191.5 668.5q117.5 117.5 284.5 117.5t286 -117.5t119 -284.5q0 -166 -119.5 -282t-285.5 -116t-284 116t-118 282q0 167 117.5 284.5z" />
    <glyph glyph-name="p" unicode="p" horiz-adv-x="1075" 
d="M767.5 158.5q90.5 92.5 90.5 225.5q0 132 -91 223t-227 91t-226.5 -91t-90.5 -223t90.5 -225t227 -93t227 92.5zM223 -512h-86v1280h74q0 -47 1 -92t1 -92q23 72 116.5 135t194.5 63t174.5 -31.5t128 -85t86 -127t31.5 -196.5t-117.5 -240.5t-291.5 -117.5t-241 77.5
t-79 112.5q5 -53 8 -84v-602z" />
    <glyph glyph-name="q" unicode="q" horiz-adv-x="1048" 
d="M735 158q92 92 92 226t-92.5 224t-225.5 90t-226 -91t-93 -223q0 -133 92.5 -225.5t226.5 -92.5t226 92zM222 665.5q118 116.5 288 116.5q171 0 242 -80.5t84 -117.5q2 47 2 58v126h73v-1280h-86v602q5 61 11 84q-50 -126 -157 -158t-181 -32t-148 31.5t-160 118.5
t-86 251t118 280.5z" />
    <glyph glyph-name="r" unicode="r" horiz-adv-x="677" 
d="M211 0v768h78v-82q0 -82 2 -117q45 100 136 156.5t185 58.5l-6 -84q-132 -4 -220.5 -83t-88.5 -197v-420h-86z" />
    <glyph glyph-name="s" unicode="s" horiz-adv-x="720" 
d="M520 216q0 46 -26.5 74.5t-68.5 46t-162 50.5t-120 180q0 99 69.5 156t152.5 57q43 0 105 -19.5t105 -68.5q-12 -16 -25 -30.5t-24 -30.5q-25 29 -69.5 47t-79.5 18q-65 0 -106.5 -31t-40.5 -86t30 -80.5t70 -43t158.5 -53.5t117.5 -187q0 -84 -62 -157.5t-186 -73.5
q-63 0 -131.5 22.5t-109.5 73.5q42 48 55 61q69 -73 193 -73q88 0 121.5 51t33.5 97z" />
    <glyph glyph-name="t" unicode="t" horiz-adv-x="587" 
d="M76 682v84h178v502h86v-502h235v-84h-235v-682h-86v682h-178z" />
    <glyph glyph-name="u" unicode="u" horiz-adv-x="1083" 
d="M211 768h86v-532q4 -66 47.5 -115t117.5 -51q136 -4 231 76.5t95 201.5v420h86v-776h-86v114l7 93q-41 -98 -133 -156.5t-204 -58.5t-177.5 63.5t-69.5 165.5v555z" />
    <glyph glyph-name="v" unicode="v" horiz-adv-x="1024" 
d="M111 768h86q84 -162 172 -328t161 -331q74 166 162 330.5t172 328.5h86q-207 -403 -420 -815q-104 205 -209.5 407.5t-209.5 407.5z" />
    <glyph glyph-name="w" unicode="w" horiz-adv-x="1581" 
d="M115 768h86q80 -164 164 -329t157 -330q53 123 114 243.5t120 243.5q-23 43 -42.5 86t-41.5 86h86q80 -164 164 -329t157 -330q74 166 158 330.5t164 328.5h86q-152 -305 -408 -815q-70 141 -139.5 278.5t-138.5 278.5q-70 -141 -139.5 -278.5t-139.5 -278.5
q-102 205 -203.5 407.5t-203.5 407.5z" />
    <glyph glyph-name="x" unicode="x" horiz-adv-x="862" 
d="M412 324l-232 -324h-106l286 395q-146 196 -274 373h107l239 -326q181 252 234 324h104l-287 -395q70 -94 137.5 -186.5t137.5 -184.5h-107q-59 80 -119.5 162t-119.5 162z" />
    <glyph glyph-name="y" unicode="y" horiz-adv-x="1007" 
d="M211 -512l254 508q-98 193 -193.5 385t-193.5 387h90q86 -172 176 -344t166 -346q78 174 167 346t175 344h90q-238 -479 -641 -1280h-90z" />
    <glyph glyph-name="z" unicode="z" horiz-adv-x="923" 
d="M86 0v84q154 154 291 301t291 301h-410q-63 0 -98 24.5t-35 84.5v45h86v-25q0 -25 13 -36t48 -11h514v-84q-154 -154 -291 -300t-290 -300h620v-84h-739z" />
    <glyph glyph-name="braceleft" unicode="{" horiz-adv-x="595" 
d="M223 934v352q0 168 45 202t81 37t77 3h96v-84h-106q-63 0 -85 -48t-22 -173v-291q0 -211 -54 -258t-79 -62q60 -34 96.5 -106.5t36.5 -214.5v-289q0 -127 21.5 -175t85.5 -48h106v-82h-96q-43 0 -81 3t-80 43.5t-42 238.5v305q0 177 -56.5 225.5t-105.5 50.5v94
q88 4 125 85.5t37 191.5z" />
    <glyph glyph-name="bar" unicode="|" horiz-adv-x="491" 
d="M197 -475v1909h86v-1909h-86z" />
    <glyph glyph-name="braceright" unicode="}" horiz-adv-x="655" 
d="M594 563q-162 -11 -162 -321v-303q0 -170 -45 -204t-82 -36t-76 -2h-96v82h107q63 0 84.5 48t21.5 175v336q0 167 57.5 214.5t75.5 59.5q-59 33 -96 104t-37 216v291q0 125 -21.5 173t-84.5 48h-107v84h96q39 0 121 -4.5t82 -237.5v-307q0 -127 19.5 -186.5t51.5 -96.5
t91 -39v-94z" />
    <glyph glyph-name="asciitilde" unicode="~" horiz-adv-x="1001" 
d="M424 1116q90 0 152 -65.5t126 -65.5t87.5 36t27.5 69l53 -5q-4 -72 -55.5 -112.5t-106.5 -40.5t-90.5 19.5t-70.5 54.5q-50 57 -115 57q-64 0 -89.5 -36t-29.5 -69l-51 5q4 71 55.5 112t106.5 41z" />
    <glyph glyph-name="uni00A0" unicode="&#xa0;" 
 />
    <glyph glyph-name="exclamdown" unicode="&#xa1;" horiz-adv-x="409" 
d="M162 -430v1196h86v-1196h-86zM139 993q0 29 20.5 48.5t44.5 19.5t45 -19.5t21 -47.5t-20 -48t-45 -20t-45.5 19t-20.5 48z" />
    <glyph glyph-name="cent" unicode="&#xa2;" horiz-adv-x="788" 
d="M160 384q0 -116 70.5 -200t181.5 -104v608q-111 -16 -181.5 -102t-70.5 -202zM498 -139h-86v133q-145 20 -241.5 131.5t-96.5 260.5t96.5 260.5t241.5 131.5v119h86v-113q137 -8 233 -88l-55 -63q-78 61 -178 65v-628q100 6 178 67q40 -46 53 -63q-98 -82 -231 -86v-127z
" />
    <glyph glyph-name="sterling" unicode="&#xa3;" horiz-adv-x="1175" 
d="M338 1012v-322h254v-84h-254v-338q0 -59 -7 -107t-38 -77h444q125 0 173 21.5t48 84.5v107h86v-121q0 -88 -42.5 -132t-198.5 -44h-748v84h90q68 0 87.5 49.5t19.5 216.5v256h-133v84h133v334q0 143 101 208.5t257 65.5t230.5 -54t115.5 -136l-63 -39q-43 75 -99 110
t-190 35q-135 0 -200.5 -54t-65.5 -148z" />
    <glyph glyph-name="currency" unicode="&#xa4;" horiz-adv-x="1024" 
d="M299 739q0 -43 16.5 -82t45 -67.5t65.5 -45t80 -16.5t82 16.5t66.5 45t44 67.5t16.5 82t-16.5 81t-44 66.5t-66.5 45t-82 16.5t-80 -16.5t-65.5 -45t-45 -66.5t-16.5 -81zM508.5 446q-96.5 0 -172.5 54l-72 -70l-61 59l71 72q-61 78 -61 176t55 172l-65 68l61 59l66 -65
q78 61 175.5 61t176.5 -63l66 67l61 -61l-66 -64q57 -76 57 -173t-61 -175l70 -71l-59 -60l-72 70q-73 -56 -169.5 -56z" />
    <glyph glyph-name="yen" unicode="&#xa5;" horiz-adv-x="1306" 
d="M989 623v-84h-287v-250h287v-84h-287v-205h-102v205h-293v84h293v250h-293v84h246q-123 205 -241.5 405.5t-241.5 405.5h104q171 -293 453 -758q6 -16 12 -29.5t12 -28.5h2q14 33 23 58q246 406 450 758h105q-123 -205 -242 -406t-241 -405h241z" />
    <glyph glyph-name="brokenbar" unicode="&#xa6;" horiz-adv-x="440" 
d="M182 717v717h86v-717h-86zM182 240h86v-717h-86v717z" />
    <glyph glyph-name="section" unicode="&#xa7;" horiz-adv-x="1024" 
d="M371 678q18 -55 65.5 -86t95.5 -28q83 5 126.5 61t39.5 110q-7 89 -63.5 134.5t-112.5 41.5q-99 -7 -140 -80.5t-11 -152.5zM453 -53q-11 20 -43 71l92 56q53 29 47.5 80.5t-54.5 133.5t-75.5 126.5t-51.5 87.5t-54 94q-55 96 -33 198t104 158q85 55 197 19
q-29 47 -55.5 94t-57.5 100q-102 175 -21 254q36 35 78.5 58.5t77.5 44.5q16 -29 43 -72l-92 -55q-53 -31 -50 -79t54 -136t95 -164t81 -136q62 -101 40 -200.5t-107 -159.5q-89 -57 -197 -20q29 -47 56.5 -96.5t58.5 -101.5q60 -101 58 -159t-44 -100q-27 -31 -70 -53.5
t-77 -42.5z" />
    <glyph glyph-name="dieresis" unicode="&#xa8;" horiz-adv-x="757" 
d="M479 1040q0 29 20.5 48.5t47.5 19.5t46 -19.5t19 -48.5t-20 -48t-46 -19t-46.5 19t-20.5 48zM141 1040q0 29 20.5 48.5t46.5 19.5t46 -19.5t20 -48.5t-20 -48t-46 -19t-46.5 19t-20.5 48z" />
    <glyph glyph-name="copyright" unicode="&#xa9;" horiz-adv-x="1624" 
d="M842 436q-149 0 -245.5 98t-96.5 235t95.5 234t233.5 97q92 0 170 -45q-11 -14 -20 -33q-69 41 -139 41q-128 0 -214.5 -86t-86.5 -209t86 -209t202 -86q70 0 150 41l22 -31q-76 -47 -157 -47zM478 421.5q138 -138.5 342 -138.5t341 137.5t137 341.5t-139 342.5
t-339 138.5t-340 -139.5t-140 -341.5t138 -340.5zM444 1139q153 151 375 151t375.5 -150.5t153.5 -376.5q0 -225 -153 -376t-376 -151t-375.5 151t-152.5 376t153 376z" />
    <glyph glyph-name="ordfeminine" unicode="&#xaa;" horiz-adv-x="1198" 
d="M611.5 568q66.5 66 66.5 162t-66 162t-164 66t-163 -67t-65 -161q0 -93 65.5 -160.5t162.5 -67.5t163.5 66zM740 1006v-554h-56v66q0 17 0.5 32t0.5 30q-17 -52 -81 -95t-140 -43q-137 0 -221.5 84.5t-84.5 202.5t84 203t208 85q82 0 146.5 -41.5t87.5 -99.5q0 14 7 130
h49z" />
    <glyph glyph-name="guillemotleft" unicode="&#xab;" horiz-adv-x="1230" 
d="M940 721q-132 -132 -227 -232l227 -233v-98l-350 331q88 84 175 165t175 165v-98zM590 721l-228 -232l228 -233v-98l-350 331q88 84 175 165t175 165v-98z" />
    <glyph glyph-name="logicalnot" unicode="&#xac;" horiz-adv-x="1144" 
d="M205 432v68h737v-197h-86v129h-651z" />
    <glyph glyph-name="uni00AD" unicode="&#xad;" 
d="M109 346v84h376v-84h-376z" />
    <glyph glyph-name="registered" unicode="&#xae;" horiz-adv-x="1640" 
d="M713 788h102q133 0 152.5 59.5t19.5 82.5q0 55 -50 97t-122 42h-102v-281zM674 430v678h145q73 0 140 -47t67 -123q0 -151 -145 -184q39 -82 76.5 -163t76.5 -161h-43q-78 164 -151 322q-10 -2 -12 -2h-115v-320h-39zM478 421.5q138 -138.5 342 -138.5t341 137.5
t137 341.5t-139 342.5t-339 138.5t-340 -139.5t-140 -341.5t138 -340.5zM444 1139q153 151 375 151t375.5 -150.5t153.5 -376.5q0 -225 -153 -376t-376 -151t-375.5 151t-152.5 376t153 376z" />
    <glyph glyph-name="macron" unicode="&#xaf;" horiz-adv-x="817" 
d="M174 995v62h471v-62h-471z" />
    <glyph glyph-name="degree" unicode="&#xb0;" horiz-adv-x="577" 
d="M166 1146q0 -48 34 -82t82 -34t82.5 34t34.5 82t-34.5 82t-82.5 34t-82 -34t-34 -82zM104 1146q0 75 51.5 126t126.5 51t126 -51t51 -126t-51.5 -125t-125.5 -50t-126 50t-52 125z" />
    <glyph glyph-name="plusminus" unicode="&#xb1;" horiz-adv-x="1073" 
d="M176 760v84h326v325h86v-325h325v-84h-325v-328h-86v328h-326zM176 250v82h737v-82h-737z" />
    <glyph glyph-name="uni00B2" unicode="&#xb2;" horiz-adv-x="815" 
d="M126 847q0 132 73 165t117 33q86 0 139 -58t53 -129t-24.5 -125t-64 -106.5t-88.5 -104t-96 -102.5h317v-41h-420q176 173 255 270t79 183t-45.5 128.5t-96.5 42.5q-85 0 -120 -48.5t-35 -112.5t40 -106l-26 -25q-57 50 -57 136z" />
    <glyph glyph-name="uni00B3" unicode="&#xb3;" horiz-adv-x="858" 
d="M160 475q48 -59 120 -59t123 50t51 119t-50 119t-122 50q-34 0 -63 -21q81 117 185 264h-251v41h326l-179 -248q82 -6 139 -63t57 -142t-61 -147.5t-152 -62.5t-154 69z" />
    <glyph glyph-name="acute" unicode="&#xb4;" horiz-adv-x="491" 
d="M205 981l184 272h88l-102 -136t-103 -136h-67z" />
    <glyph glyph-name="uni00B5" unicode="&#xb5;" horiz-adv-x="1116" 
d="M297 -412h-86v1180h86v-532q4 -66 47.5 -115t117.5 -51q136 -4 231 76.5t95 201.5v420h86v-776h-86v114l7 93q-41 -98 -130.5 -155.5t-201.5 -58.5t-166 72v-469z" />
    <glyph glyph-name="paragraph" unicode="&#xb6;" horiz-adv-x="1048" 
d="M175 1439q97 97 237 97h419v-1536h-86v1452h-247v-1452h-86v866q-141 0 -237.5 96.5t-96.5 238t97 238.5z" />
    <glyph glyph-name="periodcentered" unicode="&#xb7;" horiz-adv-x="337" 
d="M109 576q0 29 20.5 48t46.5 19t46 -19.5t20 -47.5t-20.5 -48t-46.5 -20t-46 19.5t-20 48.5z" />
    <glyph glyph-name="cedilla" unicode="&#xb8;" horiz-adv-x="925" 
d="M425 -412q52 0 87 39t35 93t-24.5 82t-55.5 48.5t-55.5 42t-24.5 60.5v47h59v-12q0 -48 21.5 -68t84 -54.5t62.5 -134.5q0 -101 -52 -155.5t-124 -54.5q-155 0 -198 133q14 6 28.5 12t28.5 12q10 -39 43 -64.5t85 -25.5z" />
    <glyph glyph-name="uni00B9" unicode="&#xb9;" horiz-adv-x="530" 
d="M78 952v38h129v-612h-40v574h-89z" />
    <glyph glyph-name="ordmasculine" unicode="&#xba;" horiz-adv-x="960" 
d="M278 569q67 -67 160.5 -67t161.5 68t68 160t-68 160t-162 68t-160.5 -67t-66.5 -161t67 -161zM234 934q85 85 205 85t206 -84.5t86 -204.5t-85.5 -204t-206.5 -84t-205.5 84.5t-84.5 203.5t85 204z" />
    <glyph glyph-name="guillemotright" unicode="&#xbb;" horiz-adv-x="1230" 
d="M590 819l350 -330l-350 -331v98l228 233l-228 232v98zM240 819l350 -330l-350 -331v98l227 233q-95 100 -227 232v98z" />
    <glyph glyph-name="onequarter" unicode="&#xbc;" horiz-adv-x="1982" 
d="M1270 342v474q-91 -119 -181.5 -237.5t-181.5 -236.5h363zM1334 342h148v-63h-148v-279h-64v279h-493q140 182 278.5 362.5t278.5 362.5v-662zM1227 1506l-569 -1545h-86l569 1545h86zM205 1225v59h198v-944h-61v885h-137z" />
    <glyph glyph-name="onehalf" unicode="&#xbd;" horiz-adv-x="2189" 
d="M191 1225v60h198v-945h-61v885h-137zM1392 664q0 -191 -161.5 -361.5t-229.5 -243.5h454v-59h-601q250 248 364 386.5t114 262.5t-65.5 185t-137.5 61q-73 0 -101 -16t-42 -27q-22 -59 -41 -112t-37 -99q7 -77 56 -129l-36 -36q-33 29 -54 72q-108 -292 -216 -587h-86
q139 378 276 750q9 76 50 135q121 328 243 660h86q-105 -286 -209 -569q46 17 105 17q119 0 194 -82.5t75 -207.5z" />
    <glyph glyph-name="threequarters" unicode="&#xbe;" horiz-adv-x="2613" 
d="M1574 342v474q-92 -119 -182 -237.5t-182 -236.5h364zM1638 342h148v-63h-148v-279h-64v279h-441q-58 -159 -117 -318h-86l569 1546h86q-143 -389 -244 -662t-160 -435q89 116 203 264t254 330v-662zM310 470q75 -91 189 -91q113 0 191.5 78.5t78.5 186.5t-78.5 186.5
t-189.5 78.5q-51 0 -100 -34q73 105 145 207.5t145 206.5h-392v65h510l-280 -389q131 -10 219 -100t88 -223t-96 -230.5t-237 -97.5t-242 107z" />
    <glyph glyph-name="questiondown" unicode="&#xbf;" horiz-adv-x="874" 
d="M438 1006q0 29 20.5 48t45.5 19t46 -19.5t21 -47.5t-21.5 -48t-45.5 -20t-45 19.5t-21 48.5zM472 -395q-167 0 -283.5 116.5t-116.5 282.5q0 205 200 346q35 27 69 47.5t77 62t43 148.5v160h86v-199q0 -105 -58.5 -154.5t-104.5 -77.5t-104 -76q-122 -100 -122 -246
t90 -236t217 -90t208 61t116 170q9 -4 75 -26q-65 -193 -187 -241t-205 -48z" />
    <glyph glyph-name="Agrave" unicode="&#xc0;" horiz-adv-x="1515" 
d="M523 1808h88q47 -68 92 -136t92 -136h-68q-51 68 -102 136.5t-102 135.5zM506 696h506q-59 141 -150.5 354t-103.5 259q-53 -156 -120 -307.5t-132 -305.5zM471 614q-56 -130 -260 -614h-88q160 377 317.5 749.5t317.5 749.5q160 -377 317.5 -749.5t317.5 -749.5h-86
l-260 614h-576z" />
    <glyph glyph-name="Aacute" unicode="&#xc1;" horiz-adv-x="1515" 
d="M717 1536l184 272h88l-102 -136t-103 -136h-67zM506 696h506q-59 141 -150.5 354t-103.5 259q-53 -156 -120 -307.5t-132 -305.5zM471 614q-56 -130 -260 -614h-88q160 377 317.5 749.5t317.5 749.5q160 -377 317.5 -749.5t317.5 -749.5h-86l-260 614h-576z" />
    <glyph glyph-name="Acircumflex" unicode="&#xc2;" horiz-adv-x="1515" 
d="M760 1784l-178 -248h-68q61 92 123 185.5t123 185.5q61 -92 122.5 -185.5t123.5 -185.5h-68q-45 61 -89 123.5t-89 124.5zM506 696h506q-59 141 -150.5 354t-103.5 259q-53 -156 -120 -307.5t-132 -305.5zM471 614q-56 -130 -260 -614h-88q160 377 317.5 749.5
t317.5 749.5q160 -377 317.5 -749.5t317.5 -749.5h-86l-260 614h-576z" />
    <glyph glyph-name="Atilde" unicode="&#xc3;" horiz-adv-x="1515" 
d="M506 696h506q-59 141 -150.5 354t-103.5 259q-53 -156 -120 -307.5t-132 -305.5zM610 1718q90 0 152 -65.5t126 -65.5t87.5 36t27.5 69l53 -5q-4 -72 -55.5 -112.5t-106.5 -40.5t-90.5 19.5t-70.5 54.5q-50 57 -115 57q-64 0 -89.5 -36t-29.5 -69l-51 5q4 71 55.5 112
t106.5 41zM471 614q-56 -130 -260 -614h-88q160 377 317.5 749.5t317.5 749.5q160 -377 317.5 -749.5t317.5 -749.5h-86l-260 614h-576z" />
    <glyph glyph-name="Adieresis" unicode="&#xc4;" horiz-adv-x="1515" 
d="M862 1634q0 29 20.5 48.5t47.5 19.5t46 -19.5t19 -48.5t-19.5 -48t-45.5 -19t-47 19t-21 48zM524 1634q0 29 20.5 48.5t46.5 19.5t46 -19.5t20 -48.5t-20.5 -48t-46.5 -19t-46 19t-20 48zM506 696h506q-59 141 -150.5 354t-103.5 259q-53 -156 -120 -307.5t-132 -305.5z
M471 614q-56 -130 -260 -614h-88q160 377 317.5 749.5t317.5 749.5q160 -377 317.5 -749.5t317.5 -749.5h-86l-260 614h-576z" />
    <glyph glyph-name="Aring" unicode="&#xc5;" horiz-adv-x="1515" 
d="M674 1710q0 -35 25.5 -60.5t60.5 -25.5t61.5 25.5t26.5 60.5t-26.5 61.5t-61.5 26.5t-60.5 -26.5t-25.5 -61.5zM610 1711q0 62 44 105.5t106 43.5t105.5 -43t43.5 -105t-44 -105.5t-105 -43.5t-105.5 43t-44.5 105zM506 696h506q-59 141 -150.5 354t-103.5 259
q-53 -156 -120 -307.5t-132 -305.5zM471 614q-56 -130 -260 -614h-88q160 377 317.5 749.5t317.5 749.5q160 -377 317.5 -749.5t317.5 -749.5h-86l-260 614h-576z" />
    <glyph glyph-name="AE" unicode="&#xc6;" horiz-adv-x="1622" 
d="M741 686v582q-53 -147 -116.5 -292t-124.5 -290h241zM1413 1434v-82h-588v-588h508v-82h-508v-600h617v-82h-701v604h-276q-72 -174 -256 -604h-86l606 1434h684z" />
    <glyph glyph-name="Ccedilla" unicode="&#xc7;" horiz-adv-x="1372" 
d="M719 -322q28 -90 129 -90q53 0 87 39t34 93t-24.5 82t-54.5 48.5t-54.5 42t-24.5 60.5v33q-143 8 -268 68.5t-270.5 214.5t-145.5 446q0 152 57.5 286t156.5 233t232 157.5t261 58.5q224 0 399 -102l-47 -70q-151 90 -306 90q-289 0 -478 -192.5t-189 -462.5
q0 -133 50 -251t189 -257t402 -139q175 0 330 90l47 -70q-167 -98 -361 -102q0 -53 29 -72.5t65 -43.5t54 -64t18 -76q0 -98 -52 -152.5t-124 -54.5q-153 0 -196 133z" />
    <glyph glyph-name="Egrave" unicode="&#xc8;" horiz-adv-x="1230" 
d="M363 1808h88q47 -68 92 -136t92 -136h-68q-51 68 -102 136.5t-102 135.5zM174 0v1434h850v-82h-766v-588h686v-82h-686v-600h795v-82h-879z" />
    <glyph glyph-name="Eacute" unicode="&#xc9;" horiz-adv-x="1230" 
d="M555 1536l184 272h88l-102 -136t-103 -136h-67zM174 0v1434h850v-82h-766v-588h686v-82h-686v-600h795v-82h-879z" />
    <glyph glyph-name="Ecircumflex" unicode="&#xca;" horiz-adv-x="1230" 
d="M614 1784l-178 -248h-68q61 92 123 185.5t123 185.5q61 -92 122.5 -185.5t123.5 -185.5h-68q-45 61 -89 123.5t-89 124.5zM174 0v1434h850v-82h-766v-588h686v-82h-686v-600h795v-82h-879z" />
    <glyph glyph-name="Edieresis" unicode="&#xcb;" horiz-adv-x="1230" 
d="M704 1634q0 29 20.5 48.5t47.5 19.5t46 -19.5t19 -48.5t-19.5 -48t-45.5 -19t-47 19t-21 48zM366 1634q0 29 20.5 48.5t46.5 19.5t46 -19.5t20 -48.5t-20.5 -48t-46.5 -19t-46 19t-20 48zM174 0v1434h850v-82h-766v-588h686v-82h-686v-600h795v-82h-879z" />
    <glyph glyph-name="Igrave" unicode="&#xcc;" horiz-adv-x="483" 
d="M213 0v1434h84v-1434h-84zM15 1808h88q47 -68 92 -136t92 -136h-68q-51 68 -102 136.5t-102 135.5z" />
    <glyph glyph-name="Iacute" unicode="&#xcd;" horiz-adv-x="483" 
d="M217 1536l184 272h88l-102 -136t-103 -136h-67zM213 0v1434h84v-1434h-84z" />
    <glyph glyph-name="Icircumflex" unicode="&#xce;" horiz-adv-x="524" 
d="M213 0v1434h84v-1434h-84zM256 1784l-178 -248h-68q61 92 123 185.5t123 185.5q61 -92 122.5 -185.5t123.5 -185.5h-68q-45 61 -89 123.5t-89 124.5z" />
    <glyph glyph-name="Idieresis" unicode="&#xcf;" horiz-adv-x="483" 
d="M356 1634q0 29 20.5 48.5t47.5 19.5t46 -19.5t19 -48.5t-19.5 -48t-45.5 -19t-47 19t-21 48zM213 0v1434h84v-1434h-84zM18 1634q0 29 20.5 48.5t46.5 19.5t46 -19.5t20 -48.5t-20.5 -48t-46.5 -19t-46 19t-20 48z" />
    <glyph glyph-name="Eth" unicode="&#xd0;" horiz-adv-x="1323" 
d="M240 82h184q301 0 496.5 175.5t195.5 462.5t-192.5 459.5t-499.5 172.5h-184v-590h424v-84h-424v-596zM45 678v84h111v672h293q314 0 472 -143.5t218.5 -277t60.5 -275.5t-44 -269t-142.5 -231.5t-256 -171t-382.5 -66.5h-219v678h-111z" />
    <glyph glyph-name="Ntilde" unicode="&#xd1;" horiz-adv-x="1665" 
d="M700 1716q90 0 152 -65.5t126 -65.5t87.5 36t27.5 69l53 -5q-4 -72 -55.5 -112.5t-106.5 -40.5t-90.5 19.5t-70.5 54.5q-50 57 -115 57q-64 0 -89.5 -36t-29.5 -69l-51 5q4 71 55.5 112t106.5 41zM291 0h-86v1499q823 -958 1132 -1319q10 -14 19.5 -26.5t19.5 -26.5
l-6 66v1241h86v-1500q-523 601 -1132 1309q-10 14 -19.5 26.5t-19.5 26.5l6 -65v-1231z" />
    <glyph glyph-name="Ograve" unicode="&#xd2;" horiz-adv-x="1718" 
d="M617 1808h88q47 -68 92 -136t92 -136h-68q-51 68 -102 136.5t-102 135.5zM213 713q0 -135 50 -253t138 -205t205 -138t250 -51t252 51t208 139t140 206t51 253t-51 253.5t-139 208t-207 140.5t-252 51t-251 -52t-206 -141.5t-138 -208t-50 -253.5zM127 715
q0 152 57.5 286t156.5 233t232 157.5t285 58.5t286 -58.5t233.5 -157.5t157.5 -233.5t58 -286.5t-58 -284.5t-157.5 -232t-233.5 -156.5t-286 -57t-285 57t-232 156.5t-156.5 232.5t-57.5 285z" />
    <glyph glyph-name="Oacute" unicode="&#xd3;" horiz-adv-x="1720" 
d="M819 1536l184 272h88l-102 -136t-103 -136h-67zM213 713q0 -135 50 -253t138 -205t205 -138t250 -51t252 51t208 139t140 206t51 253t-51 253.5t-139 208t-207 140.5t-252 51t-251 -52t-206 -141.5t-138 -208t-50 -253.5zM127 715q0 152 57.5 286t156.5 233t232 157.5
t285 58.5t286 -58.5t233.5 -157.5t157.5 -233.5t58 -286.5t-58 -284.5t-157.5 -232t-233.5 -156.5t-286 -57t-285 57t-232 156.5t-156.5 232.5t-57.5 285z" />
    <glyph glyph-name="Ocircumflex" unicode="&#xd4;" horiz-adv-x="1718" 
d="M852 1784l-178 -248h-68q61 92 123 185.5t123 185.5q61 -92 122.5 -185.5t123.5 -185.5h-68q-45 61 -89 123.5t-89 124.5zM213 713q0 -135 50 -253t138 -205t205 -138t250 -51t252 51t208 139t140 206t51 253t-51 253.5t-139 208t-207 140.5t-252 51t-251 -52
t-206 -141.5t-138 -208t-50 -253.5zM127 715q0 152 57.5 286t156.5 233t232 157.5t285 58.5t286 -58.5t233.5 -157.5t157.5 -233.5t58 -286.5t-58 -284.5t-157.5 -232t-233.5 -156.5t-286 -57t-285 57t-232 156.5t-156.5 232.5t-57.5 285z" />
    <glyph glyph-name="Otilde" unicode="&#xd5;" horiz-adv-x="1718" 
d="M713 1786q90 0 152 -65.5t126 -65.5t87.5 36t27.5 69l53 -5q-4 -72 -55.5 -112.5t-106.5 -40.5t-90.5 19.5t-70.5 54.5q-50 57 -115 57q-64 0 -89.5 -36t-29.5 -69l-51 5q4 71 55.5 112t106.5 41zM213 713q0 -135 50 -253t138 -205t205 -138t250 -51t252 51t208 139
t140 206t51 253t-51 253.5t-139 208t-207 140.5t-252 51t-251 -52t-206 -141.5t-138 -208t-50 -253.5zM127 715q0 152 57.5 286t156.5 233t232 157.5t285 58.5t286 -58.5t233.5 -157.5t157.5 -233.5t58 -286.5t-58 -284.5t-157.5 -232t-233.5 -156.5t-286 -57t-285 57
t-232 156.5t-156.5 232.5t-57.5 285z" />
    <glyph glyph-name="Odieresis" unicode="&#xd6;" horiz-adv-x="1718" 
d="M960 1634q0 29 20.5 48.5t47.5 19.5t46 -19.5t19 -48.5t-19.5 -48t-45.5 -19t-47 19t-21 48zM622 1634q0 29 20.5 48.5t46.5 19.5t46 -19.5t20 -48.5t-20.5 -48t-46.5 -19t-46 19t-20 48zM213 713q0 -135 50 -253t138 -205t205 -138t250 -51t252 51t208 139t140 206
t51 253t-51 253.5t-139 208t-207 140.5t-252 51t-251 -52t-206 -141.5t-138 -208t-50 -253.5zM127 715q0 152 57.5 286t156.5 233t232 157.5t285 58.5t286 -58.5t233.5 -157.5t157.5 -233.5t58 -286.5t-58 -284.5t-157.5 -232t-233.5 -156.5t-286 -57t-285 57t-232 156.5
t-156.5 232.5t-57.5 285z" />
    <glyph glyph-name="multiply" unicode="&#xd7;" horiz-adv-x="1024" 
d="M309 0l-59 59l86 86q86 86 143 146l-229 229l61 62l230 -230l231 230l59 -60l-231 -229l231 -232l-59 -61l-233 231z" />
    <glyph glyph-name="Oslash" unicode="&#xd8;" horiz-adv-x="1720" 
d="M1507 715q0 141 -56 263t-155 212l-833 -989q168 -135 391 -135q135 0 254 51t259 189.5t140 408.5zM858 1368q-133 0 -251 -52t-206 -141.5t-138 -208t-50 -253.5t50 -254t140 -207q676 800 836 989q-177 127 -381 127zM127 713q0 154 57.5 288t156.5 233t232.5 157.5
t284.5 58.5q243 0 436 -145l129 153q41 -35 58 -51q-75 -89 -127 -152q111 -100 175 -240.5t64 -296.5t-58 -288.5t-157.5 -232t-233.5 -156.5t-286 -57q-250 0 -448 153l-138 -162l-57 54l135 159q-104 100 -163.5 235.5t-59.5 289.5z" />
    <glyph glyph-name="Ugrave" unicode="&#xd9;" horiz-adv-x="1335" 
d="M439 1808h88q47 -68 92 -136t92 -136h-68q-51 68 -102 136.5t-102 135.5zM190 463v971h84v-965q0 -189 109 -296t286 -107t289.5 105t112.5 298v965h86v-971q0 -229 -135.5 -354t-350.5 -125t-348 125t-133 354z" />
    <glyph glyph-name="Uacute" unicode="&#xda;" horiz-adv-x="1335" 
d="M615 1536l184 272h88l-102 -136t-103 -136h-67zM190 463v971h84v-965q0 -189 109 -296t286 -107t289.5 105t112.5 298v965h86v-971q0 -229 -135.5 -354t-350.5 -125t-348 125t-133 354z" />
    <glyph glyph-name="Ucircumflex" unicode="&#xdb;" horiz-adv-x="1335" 
d="M668 1845l-178 -248h-68q61 92 123 185.5t123 185.5q61 -92 122.5 -185.5t123.5 -185.5h-68q-45 61 -89 123.5t-89 124.5zM190 463v971h84v-965q0 -189 109 -296t286 -107t289.5 105t112.5 298v965h86v-971q0 -229 -135.5 -354t-350.5 -125t-348 125t-133 354z" />
    <glyph glyph-name="Udieresis" unicode="&#xdc;" horiz-adv-x="1335" 
d="M778 1634q0 29 20.5 48.5t47.5 19.5t46 -19.5t19 -48.5t-19.5 -48t-45.5 -19t-47 19t-21 48zM440 1634q0 29 20.5 48.5t46.5 19.5t46 -19.5t20 -48.5t-20.5 -48t-46.5 -19t-46 19t-20 48zM190 463v971h84v-965q0 -189 109 -296t286 -107t289.5 105t112.5 298v965h86v-971
q0 -229 -135.5 -354t-350.5 -125t-348 125t-133 354z" />
    <glyph glyph-name="Yacute" unicode="&#xdd;" horiz-adv-x="1306" 
d="M602 1536l184 272h88l-102 -136t-103 -136h-67zM702 0h-102v543q-217 364 -530 891h104q113 -193 227.5 -379.5t225.5 -378.5q6 -16 12 -29.5t12 -28.5h2q14 33 23 58q246 406 450 758h105l-529 -891v-543z" />
    <glyph glyph-name="Thorn" unicode="&#xde;" horiz-adv-x="1026" 
d="M291 420h211q195 0 279.5 90.5t84.5 209.5q0 118 -103 206t-259 88h-213v-594zM205 0v1434h86v-338h221q156 0 298 -96t142 -275q0 -180 -112.5 -284.5t-323.5 -104.5h-225v-336h-86z" />
    <glyph glyph-name="germandbls" unicode="&#xdf;" horiz-adv-x="1173" 
d="M564 66q80 0 144 27.5t111 74.5t75 109.5t28 166t-102.5 204t-244.5 100.5v86q92 0 156 55t64 146t-61.5 160t-141.5 68q-148 -2 -239 -108t-91 -285v-870h-84v729h-133v82h133v59q0 219 116 346.5t284 131.5q127 -4 215 -94t88 -216q0 -78 -42 -142.5t-108 -98.5
q120 -41 198.5 -146.5t78.5 -240.5q0 -175 -127.5 -300.5t-305.5 -125.5q-108 0 -200 51l35 74q74 -43 154 -43z" />
    <glyph glyph-name="agrave" unicode="&#xe0;" horiz-adv-x="1128" 
d="M275 1253h88q47 -68 92 -136t92 -136h-68q-51 68 -102 136.5t-102 135.5zM729 162q92 92 92 224t-92 224t-227 92t-225.5 -93.5t-90.5 -222.5t90 -222.5t225.5 -93.5t227.5 92zM907 768v-768h-78v92q0 23 1 43.5t1 42.5q-25 -73 -114 -132.5t-193 -59.5
q-188 0 -306 116.5t-118 280.5t117 282.5t287 118.5q114 0 203.5 -58.5t121.5 -137.5l9 180h69z" />
    <glyph glyph-name="aacute" unicode="&#xe1;" horiz-adv-x="1128" 
d="M475 981l184 272h88l-102 -136t-103 -136h-67zM729 162q92 92 92 224t-92 224t-227 92t-225.5 -93.5t-90.5 -222.5t90 -222.5t225.5 -93.5t227.5 92zM907 768v-768h-78v92q0 23 1 43.5t1 42.5q-25 -73 -114 -132.5t-193 -59.5q-188 0 -306 116.5t-118 280.5t117 282.5
t287 118.5q114 0 203.5 -58.5t121.5 -137.5l9 180h69z" />
    <glyph glyph-name="acircumflex" unicode="&#xe2;" horiz-adv-x="1128" 
d="M534 1229l-178 -248h-68q61 92 123 185.5t123 185.5q61 -92 122.5 -185.5t123.5 -185.5h-68q-45 61 -89 123.5t-89 124.5zM729 162q92 92 92 224t-92 224t-227 92t-225.5 -93.5t-90.5 -222.5t90 -222.5t225.5 -93.5t227.5 92zM907 768v-768h-78v92q0 23 1 43.5t1 42.5
q-25 -73 -114 -132.5t-193 -59.5q-188 0 -306 116.5t-118 280.5t117 282.5t287 118.5q114 0 203.5 -58.5t121.5 -137.5l9 180h69z" />
    <glyph glyph-name="atilde" unicode="&#xe3;" horiz-adv-x="1128" 
d="M414 1116q90 0 152 -65.5t126 -65.5t87.5 36t27.5 69l53 -5q-4 -72 -55.5 -112.5t-106.5 -40.5t-90.5 19.5t-70.5 54.5q-50 57 -115 57q-64 0 -89.5 -36t-29.5 -69l-51 5q4 71 55.5 112t106.5 41zM729 162q92 92 92 224t-92 224t-227 92t-225.5 -93.5t-90.5 -222.5
t90 -222.5t225.5 -93.5t227.5 92zM907 768v-768h-78v92q0 23 1 43.5t1 42.5q-25 -73 -114 -132.5t-193 -59.5q-188 0 -306 116.5t-118 280.5t117 282.5t287 118.5q114 0 203.5 -58.5t121.5 -137.5l9 180h69z" />
    <glyph glyph-name="adieresis" unicode="&#xe4;" horiz-adv-x="1128" 
d="M641 1040q0 29 20.5 48.5t47.5 19.5t46 -19.5t19 -48.5t-20 -48t-46 -19t-46.5 19t-20.5 48zM303 1040q0 29 20.5 48.5t46.5 19.5t46 -19.5t20 -48.5t-20 -48t-46 -19t-46.5 19t-20.5 48zM729 162q92 92 92 224t-92 224t-227 92t-225.5 -93.5t-90.5 -222.5t90 -222.5
t225.5 -93.5t227.5 92zM907 768v-768h-78v92q0 23 1 43.5t1 42.5q-25 -73 -114 -132.5t-193 -59.5q-188 0 -306 116.5t-118 280.5t117 282.5t287 118.5q114 0 203.5 -58.5t121.5 -137.5l9 180h69z" />
    <glyph glyph-name="aring" unicode="&#xe5;" horiz-adv-x="1128" 
d="M426 1106q0 -35 25.5 -61.5t60.5 -26.5t61.5 26.5t26.5 61.5t-26.5 60.5t-61.5 25.5t-60.5 -25.5t-25.5 -60.5zM362 1106q0 61 44.5 105t105.5 44t105.5 -44t44.5 -105t-44.5 -105.5t-105.5 -44.5t-105.5 44.5t-44.5 105.5zM729 162q92 92 92 224t-92 224t-227 92
t-225.5 -93.5t-90.5 -222.5t90 -222.5t225.5 -93.5t227.5 92zM907 768v-768h-78v92q0 23 1 43.5t1 42.5q-25 -73 -114 -132.5t-193 -59.5q-188 0 -306 116.5t-118 280.5t117 282.5t287 118.5q114 0 203.5 -58.5t121.5 -137.5l9 180h69z" />
    <glyph glyph-name="ae" unicode="&#xe6;" horiz-adv-x="1288" 
d="M737 498v-78q80 31 161 62.5t161 62.5q-37 72 -101.5 114.5t-131.5 42.5t-136 -24q47 -50 47 -180zM182 213q0 -145 234.5 -145t234.5 153v111h-235q-234 0 -234 -119zM420 -16q-238 0 -281 81t-43 143q0 113 85.5 162.5t217.5 49.5h252v82q0 111 -44.5 155.5
t-159.5 44.5t-173.5 -26.5t-74.5 -38.5q-11 13 -52 57q69 63 153.5 77.5t119.5 14.5q150 0 221 -38q150 71 275.5 22.5t179 -129t71.5 -143.5l-430 -168v-64q0 -115 -55 -170q59 -27 133 -26q129 0 215 86l53 -62q-112 -108 -268 -108q-102 0 -184 43q-72 -45 -211 -45z" />
    <glyph glyph-name="ccedilla" unicode="&#xe7;" horiz-adv-x="794" 
d="M610 -413.5q-45 -49.5 -98 -57.5t-94 0t-80 39t-57 86q14 6 28.5 12t28.5 12q10 -39 43 -64.5t85 -25.5t87 39t35 93t-24.5 82t-55.5 48.5t-55.5 42t-24.5 60.5v39q-151 16 -252.5 125.5t-101.5 272.5q0 162 118 278t274 116t265 -88l-55 -63q-86 69 -210 69
q-125 0 -215.5 -92.5t-90.5 -223.5t90.5 -223.5t215.5 -92.5q126 -1 210 67q40 -46 53 -63q-100 -82 -242 -88q0 -61 84 -110t84 -145q0 -95 -45 -144.5z" />
    <glyph glyph-name="egrave" unicode="&#xe8;" horiz-adv-x="923" 
d="M203 1253h88q47 -68 92 -136t92 -136h-68q-51 68 -102 136.5t-102 135.5zM484 702q-135 0 -241.5 -100t-74.5 -276l551 219q-35 70 -100 113.5t-135 43.5zM74 385q0 167 118 283t283 116q119 0 217.5 -80.5t134.5 -205.5l-634 -252q35 -78 111 -127t188 -49t198 86
q5 -6 53 -64q-115 -106 -274 -106t-277 116t-118 283z" />
    <glyph glyph-name="eacute" unicode="&#xe9;" horiz-adv-x="923" 
d="M465 981l184 272h88l-102 -136t-103 -136h-67zM484 702q-135 0 -241.5 -100t-74.5 -276l551 219q-35 70 -100 113.5t-135 43.5zM74 385q0 167 118 283t283 116q119 0 217.5 -80.5t134.5 -205.5l-634 -252q35 -78 111 -127t188 -49t198 86q5 -6 53 -64
q-115 -106 -274 -106t-277 116t-118 283z" />
    <glyph glyph-name="ecircumflex" unicode="&#xea;" horiz-adv-x="923" 
d="M475 1229l-178 -248h-68q61 92 123 185.5t123 185.5q61 -92 122.5 -185.5t123.5 -185.5h-68q-45 61 -89 123.5t-89 124.5zM484 702q-135 0 -241.5 -100t-74.5 -276l551 219q-35 70 -100 113.5t-135 43.5zM74 385q0 167 118 283t283 116q119 0 217.5 -80.5t134.5 -205.5
l-634 -252q35 -78 111 -127t188 -49t198 86q5 -6 53 -64q-115 -106 -274 -106t-277 116t-118 283z" />
    <glyph glyph-name="edieresis" unicode="&#xeb;" horiz-adv-x="923" 
d="M571 1040q0 29 20.5 48.5t47.5 19.5t46 -19.5t19 -48.5t-20 -48t-46 -19t-46.5 19t-20.5 48zM233 1040q0 29 20.5 48.5t46.5 19.5t46 -19.5t20 -48.5t-20 -48t-46 -19t-46.5 19t-20.5 48zM484 702q-135 0 -241.5 -100t-74.5 -276l551 219q-35 70 -100 113.5t-135 43.5z
M74 385q0 167 118 283t283 116q119 0 217.5 -80.5t134.5 -205.5l-634 -252q35 -78 111 -127t188 -49t198 86q5 -6 53 -64q-115 -106 -274 -106t-277 116t-118 283z" />
    <glyph glyph-name="igrave" unicode="&#xec;" horiz-adv-x="356" 
d="M154 0v768h84v-768h-84zM-49 1253h88q47 -68 92 -136t92 -136h-67q-137 183 -205 272z" />
    <glyph glyph-name="iacute" unicode="&#xed;" horiz-adv-x="405" 
d="M162 981l184 272h88l-102 -136t-103 -136h-67zM145 0v768h84v-768h-84z" />
    <glyph glyph-name="icircumflex" unicode="&#xee;" horiz-adv-x="489" 
d="M195 0v768h86v-768h-86zM238 1229l-179 -248h-67q61 92 123 185.5t123 185.5q61 -92 122.5 -185.5t122.5 -185.5h-67q-45 61 -89 123.5t-89 124.5z" />
    <glyph glyph-name="idieresis" unicode="&#xef;" horiz-adv-x="555" 
d="M391 1040q0 29 20.5 48.5t47.5 19.5t46 -19.5t19 -48.5t-20 -48t-46 -19t-46.5 19t-20.5 48zM252 0v768h86v-768h-86zM53 1040q0 29 20.5 48.5t46.5 19.5t46 -19.5t20 -48.5t-20 -48t-46 -19t-46.5 19t-20.5 48z" />
    <glyph glyph-name="eth" unicode="&#xf0;" horiz-adv-x="1009" 
d="M736.5 164.5q90.5 92.5 90.5 224.5q0 131 -92.5 223.5t-226.5 92.5t-224.5 -93t-90.5 -225.5t91 -223.5t226.5 -91t226 92.5zM913 404q0 -177 -113.5 -294.5t-284.5 -119.5q-172 -2 -287.5 111.5t-121.5 281.5q0 168 116 285.5t276 119.5t260 -116q-70 265 -285 522
l-129 -139l-57 53l139 149q-92 102 -190 183l57 57q98 -78 190 -178q31 35 63 67.5t60 67.5l58 -49q-100 -112 -132 -145q262 -317 321.5 -538.5t59.5 -317.5z" />
    <glyph glyph-name="ntilde" unicode="&#xf1;" horiz-adv-x="1071" 
d="M436 1098q90 0 152 -65.5t126 -65.5t87.5 36t27.5 69l53 -5q-4 -72 -55.5 -112.5t-106.5 -40.5t-90.5 19.5t-70.5 54.5q-50 57 -115 57q-64 0 -89.5 -36t-29.5 -69l-51 5q4 71 55.5 112t106.5 41zM211 0v768h78v-82q0 -82 2 -117q41 96 131 155.5t204 59.5t179 -63.5
t69 -165.5v-555h-86v532q-4 66 -48 115t-118 51q-136 4 -230.5 -76.5t-94.5 -201.5v-420h-86z" />
    <glyph glyph-name="ograve" unicode="&#xf2;" horiz-adv-x="960" 
d="M209 1253h88q47 -68 92 -136t92 -136h-68q-51 68 -102 136.5t-102 135.5zM160 385q0 -131 92 -223t223 -92t224.5 93.5t93.5 221.5t-94.5 222.5t-223.5 94.5t-222 -93t-93 -224zM191.5 668.5q117.5 117.5 284.5 117.5t286 -117.5t119 -284.5q0 -166 -119.5 -282
t-285.5 -116t-284 116t-118 282q0 167 117.5 284.5z" />
    <glyph glyph-name="oacute" unicode="&#xf3;" horiz-adv-x="960" 
d="M473 981l184 272h88l-102 -136t-103 -136h-67zM160 385q0 -131 92 -223t223 -92t224.5 93.5t93.5 221.5t-94.5 222.5t-223.5 94.5t-222 -93t-93 -224zM191.5 668.5q117.5 117.5 284.5 117.5t286 -117.5t119 -284.5q0 -166 -119.5 -282t-285.5 -116t-284 116t-118 282
q0 167 117.5 284.5z" />
    <glyph glyph-name="ocircumflex" unicode="&#xf4;" horiz-adv-x="960" 
d="M475 1229l-178 -248h-68q61 92 123 185.5t123 185.5q61 -92 122.5 -185.5t123.5 -185.5h-68q-45 61 -89 123.5t-89 124.5zM160 385q0 -131 92 -223t223 -92t224.5 93.5t93.5 221.5t-94.5 222.5t-223.5 94.5t-222 -93t-93 -224zM191.5 668.5q117.5 117.5 284.5 117.5
t286 -117.5t119 -284.5q0 -166 -119.5 -282t-285.5 -116t-284 116t-118 282q0 167 117.5 284.5z" />
    <glyph glyph-name="otilde" unicode="&#xf5;" horiz-adv-x="960" 
d="M342 1116q90 0 152 -65.5t126 -65.5t87.5 36t27.5 69l53 -5q-4 -72 -55.5 -112.5t-106.5 -40.5t-90.5 19.5t-70.5 54.5q-50 57 -115 57q-64 0 -89.5 -36t-29.5 -69l-51 5q4 71 55.5 112t106.5 41zM160 385q0 -131 92 -223t223 -92t224.5 93.5t93.5 221.5t-94.5 222.5
t-223.5 94.5t-222 -93t-93 -224zM191.5 668.5q117.5 117.5 284.5 117.5t286 -117.5t119 -284.5q0 -166 -119.5 -282t-285.5 -116t-284 116t-118 282q0 167 117.5 284.5z" />
    <glyph glyph-name="odieresis" unicode="&#xf6;" horiz-adv-x="960" 
d="M583 1040q0 29 20.5 48.5t47.5 19.5t46 -19.5t19 -48.5t-20 -48t-46 -19t-46.5 19t-20.5 48zM245 1040q0 29 20.5 48.5t46.5 19.5t46 -19.5t20 -48.5t-20 -48t-46 -19t-46.5 19t-20.5 48zM160 385q0 -131 92 -223t223 -92t224.5 93.5t93.5 221.5t-94.5 222.5t-223.5 94.5
t-222 -93t-93 -224zM191.5 668.5q117.5 117.5 284.5 117.5t286 -117.5t119 -284.5q0 -166 -119.5 -282t-285.5 -116t-284 116t-118 282q0 167 117.5 284.5z" />
    <glyph glyph-name="divide" unicode="&#xf7;" horiz-adv-x="1026" 
d="M446 725q0 29 20.5 48.5t47.5 19.5t46.5 -19.5t19.5 -48.5t-19.5 -48.5t-46.5 -19.5t-47.5 19.5t-20.5 48.5zM446 213q0 29 20.5 48.5t47.5 19.5t46.5 -19.5t19.5 -48.5t-19.5 -48.5t-46.5 -19.5t-47.5 19.5t-20.5 48.5zM139 426v84h738v-84h-738z" />
    <glyph glyph-name="oslash" unicode="&#xf8;" horiz-adv-x="958" 
d="M454 70q156 0 248.5 92.5t92.5 225.5t-101 226q-9 -11 -407 -483q79 -61 167 -61zM488 702q-147 0 -237.5 -92.5t-90.5 -219.5t80 -216q102 121 201.5 239.5t201.5 239.5q-74 49 -155 49zM184 109q-110 110 -110 276.5t118 282.5t283 116q124 0 223 -65l70 80l47 -43
q-26 -29 -65 -78q59 -53 95 -130t36 -162q0 -168 -119.5 -284t-270.5 -116t-260 82l-81 -99q-40 33 -50 41z" />
    <glyph glyph-name="ugrave" unicode="&#xf9;" horiz-adv-x="1083" 
d="M320 1253h88q47 -68 92 -136t92 -136h-68q-51 68 -102 136.5t-102 135.5zM211 768h86v-532q4 -66 47.5 -115t117.5 -51q136 -4 231 76.5t95 201.5v420h86v-776h-86v114l7 93q-41 -98 -133 -156.5t-204 -58.5t-177.5 63.5t-69.5 165.5v555z" />
    <glyph glyph-name="uacute" unicode="&#xfa;" horiz-adv-x="1083" 
d="M473 981l184 272h88l-102 -136t-103 -136h-67zM211 768h86v-532q4 -66 47.5 -115t117.5 -51q136 -4 231 76.5t95 201.5v420h86v-776h-86v114l7 93q-41 -98 -133 -156.5t-204 -58.5t-177.5 63.5t-69.5 165.5v555z" />
    <glyph glyph-name="ucircumflex" unicode="&#xfb;" horiz-adv-x="1083" 
d="M545 1229l-178 -248h-68q61 92 123 185.5t123 185.5q61 -92 122.5 -185.5t123.5 -185.5h-68q-45 61 -89 123.5t-89 124.5zM211 768h86v-532q4 -66 47.5 -115t117.5 -51q136 -4 231 76.5t95 201.5v420h86v-776h-86v114l7 93q-41 -98 -133 -156.5t-204 -58.5t-177.5 63.5
t-69.5 165.5v555z" />
    <glyph glyph-name="udieresis" unicode="&#xfc;" horiz-adv-x="1083" 
d="M637 1040q0 29 20.5 48.5t47.5 19.5t46 -19.5t19 -48.5t-20 -48t-46 -19t-46.5 19t-20.5 48zM299 1040q0 29 20.5 48.5t46.5 19.5t46 -19.5t20 -48.5t-20 -48t-46 -19t-46.5 19t-20.5 48zM211 768h86v-532q4 -66 47.5 -115t117.5 -51q136 -4 231 76.5t95 201.5v420h86
v-776h-86v114l7 93q-41 -98 -133 -156.5t-204 -58.5t-177.5 63.5t-69.5 165.5v555z" />
    <glyph glyph-name="yacute" unicode="&#xfd;" horiz-adv-x="999" 
d="M494 981l184 272h88l-102 -136t-103 -136h-67zM211 -512l254 508q-98 193 -193.5 385t-193.5 387h90q86 -172 176 -344t166 -346q78 174 167 346t175 344h90q-238 -479 -641 -1280h-90z" />
    <glyph glyph-name="thorn" unicode="&#xfe;" horiz-adv-x="1140" 
d="M767.5 158.5q90.5 92.5 90.5 225.5q0 132 -91 223t-227 91t-226.5 -91t-90.5 -223t90.5 -225t227 -93t227 92.5zM223 -512h-86v2048h86v-846q-4 -27 -6 -53.5t-4 -52.5q24 74 119.5 135t193.5 61q99 0 172.5 -31.5t128 -85t86 -126t31.5 -195.5t-117.5 -240.5
t-291.5 -117.5t-241 77.5t-79 112.5q5 -53 8 -84v-602z" />
    <glyph glyph-name="ydieresis" unicode="&#xff;" horiz-adv-x="999" 
d="M624 1040q0 29 20.5 48.5t47.5 19.5t46 -19.5t19 -48.5t-19.5 -48t-45.5 -19t-47 19t-21 48zM286 1040q0 29 20.5 48.5t46.5 19.5t46 -19.5t20 -48.5t-20.5 -48t-46.5 -19t-46 19t-20 48zM211 -512l254 508q-98 193 -193.5 385t-193.5 387h90q86 -172 176 -344t166 -346
q78 174 167 346t175 344h90q-238 -479 -641 -1280h-90z" />
    <glyph glyph-name="uni2000" unicode="&#x2000;" horiz-adv-x="984" 
 />
    <glyph glyph-name="uni2001" unicode="&#x2001;" horiz-adv-x="1968" 
 />
    <glyph glyph-name="uni2002" unicode="&#x2002;" horiz-adv-x="984" 
 />
    <glyph glyph-name="uni2003" unicode="&#x2003;" horiz-adv-x="1968" 
 />
    <glyph glyph-name="uni2004" unicode="&#x2004;" horiz-adv-x="656" 
 />
    <glyph glyph-name="uni2005" unicode="&#x2005;" horiz-adv-x="492" 
 />
    <glyph glyph-name="uni2006" unicode="&#x2006;" horiz-adv-x="328" 
 />
    <glyph glyph-name="uni2007" unicode="&#x2007;" horiz-adv-x="328" 
 />
    <glyph glyph-name="uni2008" unicode="&#x2008;" horiz-adv-x="246" 
 />
    <glyph glyph-name="uni2009" unicode="&#x2009;" horiz-adv-x="393" 
 />
    <glyph glyph-name="uni200A" unicode="&#x200a;" horiz-adv-x="109" 
 />
    <glyph glyph-name="uni2010" unicode="&#x2010;" 
d="M109 346v84h376v-84h-376z" />
    <glyph glyph-name="uni2011" unicode="&#x2011;" 
d="M109 346v84h376v-84h-376z" />
    <glyph glyph-name="figuredash" unicode="&#x2012;" 
d="M109 346v84h376v-84h-376z" />
    <glyph glyph-name="endash" unicode="&#x2013;" horiz-adv-x="1042" 
d="M205 362v84h616v-84h-616z" />
    <glyph glyph-name="emdash" unicode="&#x2014;" horiz-adv-x="1433" 
d="M203 362v84h1028v-84h-1028z" />
    <glyph glyph-name="quoteleft" unicode="&#x2018;" horiz-adv-x="335" 
d="M141 1442q-28 -143 68 -234l-41 -41q-59 53 -85 129t-9 160z" />
    <glyph glyph-name="quoteright" unicode="&#x2019;" horiz-adv-x="335" 
d="M168 1442l68 14q16 -84 -10 -160t-85 -129l-41 41q96 91 68 234z" />
    <glyph glyph-name="quotesinglbase" unicode="&#x201a;" horiz-adv-x="299" 
d="M109 174l65 14q16 -84 -8.5 -159.5t-83.5 -128.5q-23 18 -41 41q96 91 68 233z" />
    <glyph glyph-name="quotedblleft" unicode="&#x201c;" horiz-adv-x="509" 
d="M410 1208l-41 -41q-59 53 -84 129t-9 160l66 -14q-28 -143 68 -234zM197 1208l-41 -41q-59 53 -84 129t-9 160l66 -14q-28 -143 68 -234z" />
    <glyph glyph-name="quotedblright" unicode="&#x201d;" horiz-adv-x="507" 
d="M317 1167l-41 41q96 91 68 234l66 14q16 -84 -9 -160t-84 -129zM104 1167l-41 41q96 91 68 234l66 14q16 -84 -9 -160t-84 -129z" />
    <glyph glyph-name="quotedblbase" unicode="&#x201e;" horiz-adv-x="567" 
d="M322 174l65 14q16 -84 -8.5 -159.5t-83.5 -128.5q-23 18 -41 41q96 91 68 233zM109 174l65 14q16 -84 -8.5 -159.5t-83.5 -128.5q-23 18 -41 41q96 91 68 233z" />
    <glyph glyph-name="bullet" unicode="&#x2022;" horiz-adv-x="980" 
d="M490 801q77 0 131.5 -54.5t54.5 -131.5t-55 -130t-133 -53q-77 0 -129 52t-52 129t53 132.5t130 55.5z" />
    <glyph glyph-name="uni202F" unicode="&#x202f;" horiz-adv-x="393" 
 />
    <glyph glyph-name="guilsinglleft" unicode="&#x2039;" horiz-adv-x="802" 
d="M590 721l-228 -232l228 -233v-98l-350 331q88 84 175 165t175 165v-98z" />
    <glyph glyph-name="guilsinglright" unicode="&#x203a;" horiz-adv-x="802" 
d="M239 819l350 -330l-350 -331v98l228 233l-228 232v98z" />
    <glyph glyph-name="uni205F" unicode="&#x205f;" horiz-adv-x="492" 
 />
    <glyph glyph-name="uni25FC" unicode="&#x25fc;" horiz-adv-x="768" 
d="M0 0v768h768v-768h-768z" />
    </font>
</defs>
</svg>
